<svg xmlns="http://www.w3.org/2000/svg" width="196" height="80"><g fill="none" fill-rule="nonzero"><g fill="#4EBFFF"><path d="M95.53 50.14c-2.153 0-3.964-.445-5.431-1.336-1.468-.89-2.574-2.128-3.318-3.713-.743-1.585-1.115-3.425-1.115-5.52 0-2.093.381-3.943 1.145-5.547.763-1.605 1.878-2.863 3.346-3.773 1.468-.91 3.259-1.365 5.372-1.365 1.566 0 2.946.265 4.14.793 1.193.528 2.167 1.277 2.92 2.246.754.968 1.238 2.157 1.454 3.566h-3.552c-.274-.998-.832-1.78-1.674-2.348-.841-.568-1.937-.851-3.288-.851-1.467 0-2.651.342-3.552 1.027a5.793 5.793 0 0 0-1.952 2.642 9.838 9.838 0 0 0-.602 3.464c0 1.272.21 2.466.632 3.582.42 1.115 1.09 2.015 2.01 2.7.92.685 2.104 1.028 3.552 1.028.9 0 1.688-.127 2.364-.382a4.535 4.535 0 0 0 1.702-1.1c.46-.48.778-1.043.954-1.689h3.729c-.235 1.39-.759 2.574-1.571 3.552-.812.979-1.84 1.728-3.082 2.246-1.243.519-2.637.778-4.184.778ZM113.332 50.11c-1.585 0-2.95-.322-4.095-.968a6.538 6.538 0 0 1-2.642-2.76c-.617-1.193-.925-2.593-.925-4.197 0-1.625.313-3.029.94-4.213a6.873 6.873 0 0 1 2.641-2.774c1.135-.666 2.496-.998 4.08-.998 1.566 0 2.917.332 4.052.998A6.638 6.638 0 0 1 119.996 38c.606 1.204.91 2.618.91 4.242 0 1.586-.299 2.97-.896 4.154a6.4 6.4 0 0 1-2.598 2.745c-1.135.646-2.495.969-4.08.969Zm-.03-3.258c.979 0 1.767-.215 2.364-.646a3.709 3.709 0 0 0 1.306-1.702 6.263 6.263 0 0 0 .41-2.29c0-.822-.136-1.595-.41-2.32a3.78 3.78 0 0 0-1.306-1.746c-.597-.44-1.385-.66-2.364-.66-.978 0-1.77.22-2.377.66a3.753 3.753 0 0 0-1.321 1.732 6.464 6.464 0 0 0-.411 2.334c0 .822.141 1.59.425 2.304a3.702 3.702 0 0 0 1.321 1.703c.597.42 1.385.631 2.363.631ZM122.944 49.905v-15.47h3.346l.206 1.966c.41-.548.89-.978 1.438-1.291a6.606 6.606 0 0 1 1.732-.69 7.262 7.262 0 0 1 1.703-.22c1.468 0 2.627.323 3.479.968.851.646 1.453 1.507 1.805 2.584.352 1.076.528 2.28.528 3.61v8.543H133.6V41.95c0-.568-.04-1.12-.117-1.659a4.516 4.516 0 0 0-.455-1.453 2.607 2.607 0 0 0-.954-1.027c-.411-.255-.96-.382-1.644-.382-.842 0-1.556.225-2.143.675-.588.45-1.028 1.052-1.321 1.805-.294.754-.44 1.61-.44 2.57v7.426h-3.582ZM146.647 50.11c-1.605 0-2.97-.332-4.095-.997a6.424 6.424 0 0 1-2.554-2.775c-.578-1.184-.866-2.558-.866-4.124 0-1.566.298-2.95.895-4.154a6.76 6.76 0 0 1 2.583-2.833c1.126-.685 2.48-1.027 4.066-1.027 1.174 0 2.202.21 3.082.63.881.422 1.62.994 2.217 1.718a7.35 7.35 0 0 1 1.335 2.466c.294.92.431 1.889.411 2.906l-.058.69c-.02.225-.05.465-.088.72h-10.862c.059.684.24 1.31.543 1.878a3.427 3.427 0 0 0 1.292 1.35c.557.333 1.257.5 2.099.5.489 0 .959-.064 1.409-.191.45-.127.846-.318 1.189-.573.342-.254.572-.577.69-.968h3.581c-.254 1.115-.724 2.025-1.41 2.73a6.253 6.253 0 0 1-2.45 1.556 9.03 9.03 0 0 1-3.01.499Zm-3.875-9.452h7.456c0-.646-.147-1.233-.44-1.761a3.187 3.187 0 0 0-1.248-1.248c-.538-.303-1.189-.455-1.952-.455-.822 0-1.507.166-2.055.5a3.47 3.47 0 0 0-1.262 1.29 3.949 3.949 0 0 0-.5 1.674ZM162.834 50.11c-1.604 0-2.955-.327-4.05-.983-1.097-.655-1.928-1.58-2.496-2.774-.568-1.194-.851-2.573-.851-4.14 0-1.565.293-2.95.88-4.153a6.636 6.636 0 0 1 2.584-2.833c1.135-.685 2.515-1.027 4.139-1.027 1.194 0 2.255.205 3.185.616a5.482 5.482 0 0 1 2.26 1.806c.578.792.945 1.776 1.101 2.95h-3.522c-.235-.744-.622-1.287-1.16-1.63-.538-.342-1.18-.513-1.923-.513-.998 0-1.786.24-2.363.72a4.042 4.042 0 0 0-1.248 1.805 6.77 6.77 0 0 0-.381 2.26c0 .822.137 1.59.41 2.304.275.715.7 1.287 1.278 1.718.577.43 1.326.646 2.246.646.743 0 1.413-.167 2.01-.5.597-.332.984-.87 1.16-1.614h3.64c-.137 1.194-.533 2.187-1.189 2.98a6 6 0 0 1-2.48 1.776 8.766 8.766 0 0 1-3.23.587ZM177.76 50.081c-1.703 0-2.946-.47-3.728-1.409-.783-.94-1.175-2.24-1.175-3.904v-7.163h-2.377v-3.17h2.377V30.09h3.582v4.345h4.697v3.17h-4.697v6.488c0 .509.059.968.176 1.38.117.41.333.733.646.968s.744.362 1.291.382c.47 0 .871-.078 1.204-.235.333-.157.607-.333.822-.528l1.204 2.73a4.907 4.907 0 0 1-1.248.763c-.46.196-.925.333-1.394.41-.47.08-.93.118-1.38.118ZM187.812 50.11c-.724 0-1.409-.097-2.055-.293a5.534 5.534 0 0 1-1.732-.866 4.234 4.234 0 0 1-1.218-1.438c-.303-.578-.455-1.258-.455-2.04 0-.999.196-1.816.587-2.452a3.827 3.827 0 0 1 1.6-1.453c.675-.333 1.443-.563 2.304-.69.862-.127 1.762-.19 2.701-.19h3.024c0-.686-.108-1.278-.323-1.777a2.605 2.605 0 0 0-1.013-1.189c-.46-.293-1.052-.44-1.776-.44-.47 0-.905.054-1.306.162a2.797 2.797 0 0 0-1.028.499 1.811 1.811 0 0 0-.601.866h-3.67c.137-.803.416-1.493.837-2.07.42-.577.94-1.052 1.556-1.424a7.397 7.397 0 0 1 2.04-.836 9.285 9.285 0 0 1 2.26-.28c2.25 0 3.89.647 4.917 1.938 1.028 1.292 1.542 3.102 1.542 5.431v8.337h-3.17l-.089-1.996c-.45.665-.988 1.155-1.615 1.468a6.11 6.11 0 0 1-1.82.602 10.35 10.35 0 0 1-1.497.132Zm.705-2.906c.783 0 1.477-.146 2.084-.44a3.651 3.651 0 0 0 1.453-1.233c.362-.528.543-1.135.543-1.82v-.499h-2.818c-.47 0-.934.015-1.394.044a4.79 4.79 0 0 0-1.248.235c-.372.127-.67.318-.895.572-.225.255-.338.617-.338 1.087s.122.85.367 1.144c.245.294.568.52.969.676.401.156.827.234 1.277.234Z"/></g><path fill="#0E57C7" d="M18.865 5.851A39.987 39.987 0 0 1 35.223.047L35.625 0l1.31 11.67a28.24 28.24 0 0 0-11.847 4.14C11.797 24.113 7.755 41.62 16.06 54.911c8.305 13.291 25.812 17.333 39.103 9.028a28.247 28.247 0 0 0 8.73-8.547l.208-.322 9.923 6.277a39.982 39.982 0 0 1-12.638 12.55C42.595 85.64 17.843 79.926 6.102 61.135-5.64 42.345.074 17.593 18.865 5.851Z"/><path fill="#5ACCFF" d="M25.088 15.81c13.29-8.306 30.798-4.264 39.103 9.027 8.305 13.29 4.263 30.798-9.028 39.103a28.282 28.282 0 0 1-18.871 4.053l-.32-.046 1.722-11.615a16.543 16.543 0 0 0 11.247-2.35c7.79-4.868 10.16-15.131 5.292-22.923C49.364 23.27 39.1 20.9 31.31 25.767a16.543 16.543 0 0 0-7.028 9.034l-.077.249-11.24-3.4a28.286 28.286 0 0 1 12.123-15.84Z"/></g></svg>