<svg width="147" height="60" viewBox="0 0 147 60" fill="none" xmlns="http://www.w3.org/2000/svg">
<g clip-path="url(#clip0_50_4)">
<path d="M71.433 37.4927C69.8232 37.4927 68.4696 37.1597 67.372 36.4939C66.2744 35.828 65.4476 34.9024 64.8915 33.717C64.3354 32.5317 64.0574 31.1561 64.0574 29.5902C64.0574 28.0244 64.3427 26.6414 64.9135 25.4414C65.4842 24.2414 66.3183 23.3012 67.4159 22.6207C68.5135 21.9402 69.8525 21.6 71.433 21.6C72.6037 21.6 73.6354 21.7975 74.5281 22.1927C75.4208 22.5878 76.1488 23.1475 76.7123 23.8719C77.2757 24.5963 77.6379 25.4853 77.7988 26.539H75.1427C74.9379 25.7927 74.5208 25.2073 73.8915 24.7829C73.2623 24.3585 72.4427 24.1463 71.433 24.1463C70.3354 24.1463 69.4501 24.4024 68.7769 24.9146C68.1037 25.4268 67.6171 26.0853 67.3171 26.8902C67.0171 27.6951 66.8671 28.5585 66.8671 29.4805C66.8671 30.4317 67.0244 31.3244 67.3391 32.1585C67.6537 32.9927 68.1549 33.6658 68.8427 34.178C69.5305 34.6902 70.4159 34.9463 71.4988 34.9463C72.172 34.9463 72.761 34.8512 73.2659 34.661C73.7708 34.4707 74.1952 34.1963 74.5391 33.8378C74.883 33.4792 75.1208 33.0585 75.2525 32.5756H78.0403C77.8647 33.6146 77.4732 34.5 76.8659 35.2317C76.2586 35.9634 75.4903 36.5231 74.561 36.9109C73.6318 37.2988 72.5891 37.4927 71.433 37.4927Z" fill="#051D4F"/>
<path d="M84.7449 37.4707C83.5595 37.4707 82.5388 37.2292 81.6827 36.7463C80.8266 36.2634 80.1681 35.5756 79.7071 34.6829C79.2461 33.7902 79.0156 32.7439 79.0156 31.5439C79.0156 30.3292 79.2498 29.2792 79.7181 28.3939C80.1864 27.5085 80.8449 26.817 81.6937 26.3195C82.5425 25.8219 83.5595 25.5731 84.7449 25.5731C85.9156 25.5731 86.9254 25.8219 87.7742 26.3195C88.6229 26.817 89.2742 27.5158 89.7278 28.4158C90.1815 29.3158 90.4083 30.3731 90.4083 31.5878C90.4083 32.7731 90.1851 33.8085 89.7388 34.6939C89.2925 35.5792 88.6449 36.2634 87.7961 36.7463C86.9473 37.2292 85.9303 37.4707 84.7449 37.4707ZM84.7229 35.0341C85.4546 35.0341 86.0437 34.8731 86.49 34.5512C86.9364 34.2292 87.262 33.8048 87.4668 33.278C87.6717 32.7512 87.7742 32.1804 87.7742 31.5658C87.7742 30.9512 87.6717 30.3731 87.4668 29.8317C87.262 29.2902 86.9364 28.8548 86.49 28.5256C86.0437 28.1963 85.4546 28.0317 84.7229 28.0317C83.9912 28.0317 83.3986 28.1963 82.9449 28.5256C82.4912 28.8548 82.162 29.2865 81.9571 29.8207C81.7522 30.3548 81.6498 30.9365 81.6498 31.5658C81.6498 32.1804 81.7559 32.7548 81.9681 33.289C82.1803 33.8231 82.5095 34.2475 82.9559 34.5621C83.4022 34.8768 83.9912 35.0341 84.7229 35.0341Z" fill="#051D4F"/>
<path d="M91.9324 37.317V25.7487H94.4348L94.5885 27.2195C94.8958 26.8097 95.2543 26.4878 95.6641 26.2536C96.0738 26.0195 96.5055 25.8475 96.9592 25.7378C97.4129 25.628 97.8373 25.5731 98.2324 25.5731C99.3299 25.5731 100.197 25.8146 100.834 26.2975C101.47 26.7804 101.92 27.4243 102.184 28.2292C102.447 29.0341 102.579 29.9341 102.579 30.9292V37.317H99.9007V31.3682C99.9007 30.9439 99.8714 30.5304 99.8129 30.128C99.7543 29.7256 99.6409 29.3634 99.4726 29.0414C99.3043 28.7195 99.0665 28.4634 98.7592 28.2731C98.4519 28.0829 98.0421 27.9878 97.5299 27.9878C96.9007 27.9878 96.3665 28.156 95.9275 28.4926C95.4885 28.8292 95.1592 29.2792 94.9397 29.8426C94.7202 30.406 94.6104 31.0463 94.6104 31.7634V37.317H91.9324Z" fill="#051D4F"/>
<path d="M109.656 37.4707C108.456 37.4707 107.436 37.2219 106.594 36.7243C105.753 36.2268 105.116 35.5353 104.684 34.6499C104.253 33.7646 104.037 32.7365 104.037 31.5658C104.037 30.3951 104.26 29.3597 104.706 28.4597C105.153 27.5597 105.797 26.8536 106.638 26.3414C107.48 25.8292 108.493 25.5731 109.678 25.5731C110.556 25.5731 111.325 25.7304 111.983 26.0451C112.642 26.3597 113.194 26.7878 113.641 27.3292C114.087 27.8707 114.42 28.4853 114.639 29.1731C114.859 29.8609 114.961 30.5853 114.947 31.3463C114.932 31.5219 114.917 31.6939 114.903 31.8621C114.888 32.0304 114.866 32.2097 114.837 32.3999H106.715C106.759 32.9121 106.894 33.3804 107.121 33.8048C107.348 34.2292 107.67 34.5658 108.087 34.8146C108.504 35.0634 109.027 35.1878 109.656 35.1878C110.022 35.1878 110.373 35.1402 110.71 35.0451C111.047 34.9499 111.343 34.8073 111.599 34.617C111.855 34.4268 112.027 34.1853 112.115 33.8926H114.793C114.603 34.7268 114.252 35.4073 113.739 35.9341C113.227 36.4609 112.616 36.8487 111.906 37.0975C111.197 37.3463 110.447 37.4707 109.656 37.4707ZM106.759 30.4024H112.334C112.334 29.9195 112.225 29.4804 112.005 29.0853C111.786 28.6902 111.475 28.3792 111.072 28.1524C110.67 27.9256 110.183 27.8121 109.612 27.8121C108.998 27.8121 108.486 27.9365 108.076 28.1853C107.666 28.4341 107.351 28.756 107.132 29.1512C106.912 29.5463 106.788 29.9634 106.759 30.4024Z" fill="#051D4F"/>
<path d="M121.761 37.4707C120.561 37.4707 119.551 37.2256 118.732 36.7353C117.912 36.2451 117.29 35.5536 116.866 34.6609C116.441 33.7682 116.229 32.7365 116.229 31.5658C116.229 30.3951 116.449 29.3597 116.888 28.4597C117.327 27.5597 117.971 26.8536 118.819 26.3414C119.668 25.8292 120.7 25.5731 121.915 25.5731C122.807 25.5731 123.601 25.7268 124.296 26.0341C124.991 26.3414 125.555 26.7914 125.987 27.3841C126.418 27.9768 126.693 28.7121 126.81 29.5902H124.176C124 29.0341 123.711 28.628 123.309 28.3719C122.906 28.1158 122.427 27.9878 121.871 27.9878C121.124 27.9878 120.535 28.167 120.104 28.5256C119.672 28.8841 119.361 29.3341 119.171 29.8756C118.98 30.417 118.885 30.9804 118.885 31.5658C118.885 32.1804 118.988 32.7548 119.193 33.289C119.398 33.8231 119.716 34.2512 120.148 34.5731C120.579 34.8951 121.139 35.056 121.827 35.056C122.383 35.056 122.884 34.9317 123.33 34.6829C123.777 34.4341 124.066 34.0317 124.198 33.4756H126.919C126.817 34.3682 126.521 35.1109 126.03 35.7036C125.54 36.2963 124.922 36.739 124.176 37.0317C123.429 37.3243 122.624 37.4707 121.761 37.4707Z" fill="#051D4F"/>
<path d="M132.921 37.4488C131.648 37.4488 130.719 37.0976 130.134 36.3951C129.548 35.6927 129.256 34.7195 129.256 33.4756V28.1195H127.478V25.7488H129.256V22.5H131.934V25.7488H135.446V28.1195H131.934V32.9707C131.934 33.3512 131.978 33.6951 132.065 34.0024C132.153 34.3098 132.314 34.5512 132.548 34.7268C132.782 34.9024 133.104 34.9976 133.514 35.0122C133.865 35.0122 134.165 34.9537 134.414 34.8366C134.663 34.7195 134.868 34.5878 135.029 34.4415L135.929 36.4829C135.651 36.7171 135.34 36.9073 134.996 37.0537C134.652 37.2 134.304 37.3024 133.953 37.361C133.602 37.4195 133.258 37.4488 132.921 37.4488Z" fill="#051D4F"/>
<path d="M140.438 37.4707C139.897 37.4707 139.384 37.3975 138.902 37.2512C138.419 37.1048 137.987 36.889 137.606 36.6036C137.226 36.3182 136.922 35.9597 136.695 35.528C136.469 35.0963 136.355 34.5878 136.355 34.0024C136.355 33.256 136.502 32.6451 136.794 32.1695C137.087 31.6939 137.486 31.3317 137.991 31.0829C138.495 30.8341 139.07 30.6621 139.714 30.567C140.358 30.4719 141.031 30.4243 141.733 30.4243H143.994C143.994 29.9121 143.914 29.4695 143.753 29.0963C143.592 28.7231 143.339 28.4268 142.995 28.2073C142.652 27.9878 142.209 27.878 141.667 27.878C141.316 27.878 140.991 27.9182 140.691 27.9987C140.391 28.0792 140.134 28.2036 139.922 28.3719C139.71 28.5402 139.56 28.756 139.472 29.0195H136.728C136.831 28.4195 137.039 27.9036 137.354 27.4719C137.669 27.0402 138.056 26.6853 138.517 26.4073C138.978 26.1292 139.487 25.9207 140.043 25.7817C140.599 25.6426 141.163 25.5731 141.733 25.5731C143.416 25.5731 144.642 26.056 145.41 27.0219C146.178 27.9878 146.563 29.3414 146.563 31.0829V37.317H144.192L144.126 35.8243C143.789 36.3219 143.387 36.6878 142.919 36.9219C142.45 37.156 141.997 37.306 141.558 37.3719C141.119 37.4378 140.745 37.4707 140.438 37.4707ZM140.965 35.2975C141.55 35.2975 142.07 35.1878 142.524 34.9682C142.977 34.7487 143.339 34.4414 143.61 34.0463C143.881 33.6512 144.016 33.1975 144.016 32.6853V32.3121H141.909C141.558 32.3121 141.21 32.3231 140.866 32.3451C140.522 32.367 140.211 32.4256 139.933 32.5207C139.655 32.6158 139.432 32.7585 139.264 32.9487C139.095 33.139 139.011 33.4097 139.011 33.7609C139.011 34.1121 139.103 34.3975 139.286 34.617C139.469 34.8365 139.71 35.0048 140.01 35.1219C140.31 35.239 140.628 35.2975 140.965 35.2975Z" fill="#051D4F"/>
<path d="M14.1064 4.3752C17.8661 2.02592 22.028 0.563378 26.338 0.0353241L26.6389 0L27.6184 8.72568C24.4992 9.07583 21.487 10.1171 18.7594 11.8215C8.82093 18.0317 5.79861 31.1228 12.0089 41.0613C18.2191 50.9997 31.3102 54.022 41.2486 47.8118C43.9027 46.1534 46.1104 43.9776 47.7771 41.4203L47.9318 41.1794L55.3522 45.8736C52.9678 49.6428 49.7619 52.8459 45.9016 55.2581C31.8507 64.0381 13.3426 59.7651 4.56258 45.7142C-4.21741 31.6633 0.0555192 13.1552 14.1064 4.3752Z" fill="#124BB8"/>
<path d="M18.7595 11.8214C28.6979 5.61119 41.789 8.63351 47.9993 18.572C54.2095 28.5104 51.1872 41.6015 41.2487 47.8118C36.9864 50.4752 32.0127 51.5091 27.1374 50.842L26.8977 50.8078L28.1864 42.1224C31.0922 42.5536 34.0506 41.9559 36.5958 40.3655C42.4218 36.725 44.1935 29.0509 40.553 23.2249C36.9125 17.3989 29.2384 15.6272 23.4124 19.2677C20.8766 20.8523 19.0469 23.2378 18.1574 26.0225L18.0995 26.2087L9.69507 23.6667C11.1713 18.7861 14.3469 14.5787 18.7595 11.8214Z" fill="#3DACE0"/>
</g>
<defs>
<clipPath id="clip0_50_4">
<rect width="146.707" height="60" fill="white"/>
</clipPath>
</defs>
</svg>
