<svg xmlns="http://www.w3.org/2000/svg" width="64" height="69"><g fill="none" fill-rule="nonzero"><path fill="#0E57C7" d="M16.31 5.047A34.626 34.626 0 0 1 30.453.04L30.8 0l1.132 10.065a24.455 24.455 0 0 0-10.243 3.57C10.2 20.8 6.705 35.9 13.885 47.362c7.18 11.464 22.317 14.95 33.808 7.786a24.394 24.394 0 0 0 7.549-7.372l.178-.278L64 52.913a34.527 34.527 0 0 1-10.927 10.824C36.827 73.865 15.427 68.936 5.275 52.73-4.876 36.522.065 15.174 16.31 5.047Z"/><path fill="#5ACCFF" d="M21.476 13.726c11.487-7.17 26.617-3.68 33.794 7.793 7.178 11.473 3.685 26.586-7.802 33.756a24.464 24.464 0 0 1-16.309 3.498l-.277-.04 1.49-10.026a14.31 14.31 0 0 0 9.719-2.029c6.733-4.202 8.78-13.062 4.573-19.788-4.207-6.725-13.077-8.77-19.81-4.568a14.283 14.283 0 0 0-6.074 7.798l-.067.215L11 27.4a24.421 24.421 0 0 1 10.476-13.674Z"/></g></svg>